<?xml version="1.0" standalone="no"?>
<!DOCTYPE svg PUBLIC "-//W3C//DTD SVG 20010904//EN"
 "http://www.w3.org/TR/2001/REC-SVG-20010904/DTD/svg10.dtd">
<svg version="1.0" xmlns="http://www.w3.org/2000/svg"
 width="600.000000pt" height="600.000000pt" viewBox="0 0 600.000000 600.000000"
 preserveAspectRatio="xMidYMid meet">

<g transform="translate(0.000000,600.000000) scale(0.100000,-0.100000)"
fill="#000000" stroke="none">
<path d="M1316 5000 c-40 -12 -46 -25 -46 -105 0 -150 58 -294 187 -462 196
-257 537 -695 545 -699 9 -6 118 61 118 72 0 3 -55 75 -122 161 -68 86 -139
177 -159 202 -39 51 -149 230 -149 243 0 19 53 -29 122 -110 40 -48 138 -169
216 -269 79 -101 149 -183 155 -183 22 0 191 134 294 233 l102 98 -126 162
c-69 89 -200 260 -292 379 -100 131 -176 221 -191 227 -14 5 -74 12 -135 16
-60 3 -173 15 -250 25 -148 21 -222 24 -269 10z m219 -301 l50 -31 -50 6 c-51
6 -82 26 -71 45 10 16 15 14 71 -20z"/>
<path d="M2670 4173 c0 -17 813 -1058 824 -1056 6 1 40 -36 76 -82 63 -83 87
-104 77 -66 -7 28 -131 190 -142 187 -5 -2 -163 195 -350 437 -443 575 -453
587 -470 587 -8 0 -15 -3 -15 -7z"/>
<path d="M2607 4153 c-10 -16 11 -39 23 -27 8 8 7 14 -4 23 -8 7 -17 8 -19 4z"/>
<path d="M2519 3985 c-24 -20 -48 -41 -53 -45 -4 -5 167 -234 380 -511 214
-276 392 -507 396 -513 6 -9 22 2 100 64 18 15 2 38 -363 510 -209 272 -389
503 -398 513 -17 17 -19 17 -62 -18z"/>
<path d="M2169 3817 c-50 -34 -99 -73 -107 -86 -15 -22 -13 -22 40 8 45 25 57
29 61 17 3 -8 -1 -20 -9 -27 -8 -6 -12 -14 -10 -17 3 -3 31 14 61 37 42 32 56
48 54 64 -2 12 3 32 9 45 20 35 0 27 -99 -41z"/>
<path d="M2010 3681 c0 -5 6 -14 14 -20 16 -13 32 2 21 19 -8 12 -35 13 -35 1z"/>
<path d="M1972 3628 c-8 -8 -2 -22 27 -57 152 -185 755 -980 756 -996 0 -11
29 -57 64 -103 66 -85 83 -94 128 -69 20 12 19 14 -48 99 -43 55 -74 85 -83
82 -9 -3 -151 174 -416 518 -222 288 -406 526 -410 531 -3 4 -11 2 -18 -5z"/>
<path d="M3639 2912 c-25 -11 -259 -236 -259 -249 0 -26 20 -21 70 16 l53 40
176 -228 c97 -125 336 -434 531 -688 274 -355 358 -459 370 -453 8 5 30 28 47
53 l32 44 -386 499 c-212 274 -448 581 -525 681 -84 109 -145 180 -152 176 -6
-4 10 17 37 45 59 64 61 87 6 64z"/>
<path d="M3124 2799 c-16 -13 -41 -33 -56 -47 l-27 -25 71 -93 c80 -105 73
-103 157 -35 l35 28 -69 89 c-37 49 -71 93 -75 97 -4 4 -20 -2 -36 -14z"/>
<path d="M3276 2531 c-4 -6 -74 -55 -155 -109 l-149 -99 509 -658 c280 -363
513 -663 517 -667 22 -22 187 42 302 117 l70 45 -222 287 c-122 159 -361 468
-531 688 -170 220 -315 401 -322 403 -7 2 -16 -1 -19 -7z"/>
</g>
</svg>
